<svg width="77" height="77" viewBox="0 0 77 77" fill="none" xmlns="http://www.w3.org/2000/svg">
<g opacity="0.3" clip-path="url(#clip0_15_69)">
<path d="M47.9784 55.7186C48.498 55.7502 49.014 55.6125 49.4487 55.326C49.8835 55.0396 50.2136 54.6198 50.3895 54.1298C52.3253 48.7376 58.0812 31.4833 54.6744 22.0231C50.5659 10.665 40.6486 8.6509 34.8121 12.4967C30.564 15.296 29.4469 20.3271 29.16 22.8489C29.152 23.0299 29.1013 23.2064 29.0119 23.3639C28.9225 23.5215 28.797 23.6556 28.6457 23.7553C28.4945 23.855 28.3217 23.9174 28.1417 23.9373C27.9617 23.9573 27.7794 23.9343 27.61 23.8703C25.1796 23.139 20.1158 22.1806 15.8676 24.9798C10.0312 28.8257 7.96944 38.7332 16.7854 46.9894C24.1342 53.8521 42.2374 55.3985 47.9784 55.7186Z" fill="#FFCCDD" stroke="#FFB0CA" stroke-width="0.5" stroke-linecap="round" stroke-linejoin="round"/>
<path d="M45.0916 50.6088C45.4675 50.6348 45.8415 50.5366 46.1562 50.3293C46.4708 50.122 46.7086 49.817 46.833 49.4613C48.2683 45.5378 52.4449 32.988 49.9521 26.1228C46.9771 17.9012 39.7362 16.3877 35.4976 19.1806C32.4168 21.2107 31.5994 24.8642 31.3957 26.7C31.3809 26.8281 31.3382 26.9513 31.2707 27.061C31.2031 27.1708 31.1123 27.2644 31.0047 27.3353C30.8971 27.4063 30.7753 27.4527 30.6478 27.4715C30.5203 27.4903 30.3902 27.4809 30.2667 27.444C28.5183 26.9356 24.81 26.2642 21.7579 28.2754C17.5193 31.0683 16.0153 38.3029 22.4345 44.2962C27.7596 49.2539 40.9201 50.3798 45.0916 50.6088Z" fill="#FFB0CA" stroke="#FF87AF" stroke-width="0.5" stroke-linecap="round" stroke-linejoin="round"/>
<path opacity="0.7" d="M40.6459 65.9155C40.8967 66.2962 42.2965 65.8974 44.5374 64.8068C46.7782 63.7163 49.6765 62.0233 52.5947 60.1004C55.5129 58.1775 58.212 56.1822 60.0981 54.5533C61.9843 52.9245 62.903 51.7956 62.6522 51.4149C62.4013 51.0343 61.0015 51.4331 58.7607 52.5237C56.5199 53.6142 53.6216 55.3071 50.7033 57.23C47.7851 59.1529 45.0861 61.1483 43.2 62.7771C41.3138 64.406 40.3951 65.5349 40.6459 65.9155Z" fill="#FFE5EE"/>
<path d="M42.3652 45.8047C42.608 45.8165 42.8482 45.7508 43.0512 45.617C43.2541 45.4833 43.4093 45.2885 43.4942 45.0608C44.4136 42.5202 47.1075 34.4466 45.5137 30.0079C43.5941 24.6998 38.9276 23.7404 36.1912 25.5435C35.4296 26.1179 34.7996 26.8485 34.3434 27.6863C33.8873 28.5241 33.6155 29.4498 33.5464 30.4012C33.538 30.4841 33.5112 30.5642 33.4681 30.6356C33.4249 30.7069 33.3663 30.7677 33.2967 30.8136C33.2271 30.8595 33.1481 30.8893 33.0655 30.9008C32.9829 30.9124 32.8988 30.9054 32.8192 30.8803C31.9177 30.5685 30.9599 30.453 30.0101 30.5416C29.0603 30.6303 28.1404 30.9209 27.3121 31.3942C24.5757 33.1973 23.6163 37.8638 27.7365 41.7218C31.1738 44.9183 39.6679 45.6472 42.3652 45.8047Z" fill="#FF6196"/>
<path d="M36.1786 25.5243C35.417 26.0987 34.7869 26.8293 34.3308 27.6671C33.8747 28.5049 33.6029 29.4306 33.5338 30.382C33.5254 30.465 33.4986 30.545 33.4555 30.6164C33.4123 30.6877 33.3537 30.7485 33.2841 30.7944C33.2145 30.8403 33.1355 30.8701 33.0529 30.8817C32.9703 30.8932 32.8862 30.8862 32.8066 30.8612C31.9051 30.5493 30.9473 30.4339 29.9975 30.5225C29.0477 30.6111 28.1278 30.9018 27.2995 31.375C24.5631 33.1781 23.6037 37.8447 27.7239 41.7027C28.5375 42.4159 29.4604 42.9938 30.4573 43.4144C30.2915 43.2993 30.132 43.1754 29.9795 43.0432C26.6017 39.9996 27.5919 36.1086 30.0317 34.501C31.5456 33.5449 33.3728 33.2173 35.1246 33.5876C35.4754 31.8318 36.4973 30.2821 37.9731 29.2681C40.4129 27.6605 44.4172 28.2604 45.8431 32.5901C45.9042 32.7788 45.9531 32.9712 45.9894 33.1662C46.0006 32.0875 45.8357 31.0142 45.5011 29.9887C43.5815 24.6806 38.915 23.7212 36.1786 25.5243Z" fill="#FF87AF"/>
<path d="M42.3652 45.8047C42.608 45.8165 42.8482 45.7508 43.0512 45.617C43.2541 45.4833 43.4093 45.2885 43.4942 45.0608C44.4136 42.5202 47.1075 34.4466 45.5137 30.0079C43.5941 24.6998 38.9276 23.7404 36.1912 25.5435C35.4296 26.1179 34.7996 26.8485 34.3434 27.6863C33.8873 28.5241 33.6155 29.4498 33.5464 30.4012C33.538 30.4841 33.5112 30.5642 33.4681 30.6356C33.4249 30.7069 33.3663 30.7677 33.2967 30.8136C33.2271 30.8595 33.1481 30.8893 33.0655 30.9008C32.9829 30.9124 32.8988 30.9054 32.8192 30.8803C31.9177 30.5685 30.9599 30.453 30.0101 30.5416C29.0603 30.6303 28.1404 30.9209 27.3121 31.3942C24.5757 33.1973 23.6163 37.8638 27.7365 41.7218C31.1738 44.9183 39.6679 45.6472 42.3652 45.8047Z" stroke="#45413C" stroke-width="0.5" stroke-linecap="round" stroke-linejoin="round"/>
</g>
<defs>
<clipPath id="clip0_15_69">
<rect width="55" height="55" fill="white" transform="translate(0 30.2622) rotate(-33.3822)"/>
</clipPath>
</defs>
</svg>
