<svg width="69" height="69" viewBox="0 0 69 69" fill="none" xmlns="http://www.w3.org/2000/svg">
<g opacity="0.5" clip-path="url(#clip0_15_88)">
<path d="M8.59612 33.9321C9.54987 40.4936 13.0711 46.4074 18.3851 50.3727C23.6992 54.3379 30.3708 56.0298 36.9323 55.076C43.4937 54.1223 49.4076 50.6011 53.3728 45.287C57.338 39.973 59.0299 33.3014 58.0761 26.7399C57.1224 20.1784 53.6012 14.2646 48.2871 10.2994C42.9731 6.3341 36.3015 4.64226 29.74 5.59602C23.1785 6.54977 17.2647 10.071 13.2995 15.385C9.33421 20.6991 7.64237 27.3707 8.59612 33.9321Z" fill="#FFE500"/>
<path d="M29.74 5.59601C24.8469 6.30726 20.2746 8.45351 16.6013 11.7634C12.9279 15.0732 10.3186 19.398 9.10318 24.1908C7.88777 28.9836 8.1209 34.0292 9.77308 38.6896C11.4253 43.3499 14.4223 47.4157 18.3852 50.3727C22.348 53.3297 27.0988 55.0452 32.0366 55.3022C36.9745 55.5592 41.8777 54.3462 46.1261 51.8166C50.3746 49.287 53.7775 45.5544 55.9046 41.0908C58.0317 36.6271 58.7874 31.633 58.0761 26.7399C57.1224 20.1784 53.6012 14.2646 48.2871 10.2994C42.9731 6.3341 36.3015 4.64226 29.74 5.59601ZM36.3928 51.365C31.9279 52.014 27.3707 51.3245 23.2977 49.3835C19.2246 47.4425 15.8186 44.3373 13.5103 40.4606C11.2021 36.5839 10.0952 32.1098 10.3297 27.604C10.5643 23.0982 12.1296 18.7631 14.8279 15.147C17.5262 11.5309 21.2362 8.79609 25.4888 7.28847C29.7413 5.78086 34.3454 5.56813 38.7189 6.67719C43.0923 7.78625 47.0387 10.1673 50.0589 13.5192C53.0792 16.8711 55.0376 21.0433 55.6866 25.5083C56.5569 31.4956 55.0131 37.5835 51.3948 42.4325C47.7766 47.2816 42.3802 50.4947 36.3928 51.365Z" fill="#EBCB00"/>
<path d="M23.0372 11.6228C23.1088 12.1149 23.9593 12.4732 25.4018 12.6189C26.8443 12.7645 28.7605 12.6856 30.7289 12.3995C32.6974 12.1134 34.5568 11.6435 35.8981 11.0932C37.2394 10.5429 37.9528 9.95727 37.8812 9.46516C37.8097 8.97305 36.9591 8.61476 35.5167 8.46911C34.0742 8.32345 32.158 8.40237 30.1895 8.6885C28.2211 8.97462 26.3617 9.44452 25.0204 9.99481C23.6791 10.5451 22.9657 11.1307 23.0372 11.6228Z" fill="#FFF48C"/>
<path d="M8.59612 33.9321C9.54987 40.4936 13.0711 46.4074 18.3851 50.3727C23.6992 54.3379 30.3708 56.0298 36.9323 55.076C43.4937 54.1223 49.4076 50.6011 53.3728 45.287C57.338 39.9729 59.0299 33.3014 58.0761 26.7399C57.1224 20.1784 53.6012 14.2646 48.2871 10.2994C42.9731 6.3341 36.3015 4.64226 29.74 5.59602C23.1785 6.54977 17.2647 10.071 13.2995 15.385C9.33421 20.6991 7.64237 27.3707 8.59612 33.9321V33.9321Z" stroke="#45413C" stroke-width="0.5" stroke-linecap="round" stroke-linejoin="round"/>
<path opacity="0.15" d="M17.8595 62.9009C17.931 63.393 20.0848 63.5619 23.8471 63.3703C27.6095 63.1788 32.672 62.6425 37.9212 61.8795C43.1704 61.1165 48.1761 60.1893 51.8373 59.3018C55.4984 58.4143 57.515 57.6392 57.4435 57.1471C57.372 56.655 55.2181 56.4861 51.4558 56.6777C47.6935 56.8692 42.631 57.4055 37.3818 58.1685C32.1326 58.9315 27.1269 59.8588 23.4657 60.7462C19.8046 61.6337 17.788 62.4088 17.8595 62.9009Z" fill="#45413C"/>
<path d="M22.2031 31.9543C22.2387 32.1989 22.2009 32.4487 22.0945 32.6718C21.9882 32.895 21.818 33.0816 21.6056 33.2081C21.3932 33.3346 21.148 33.3953 20.9011 33.3824C20.6543 33.3696 20.4167 33.2838 20.2186 33.1359C20.0204 32.9881 19.8706 32.7848 19.788 32.5518C19.7054 32.3188 19.6937 32.0665 19.7545 31.8268C19.8152 31.5872 19.9457 31.371 20.1294 31.2055C20.313 31.04 20.5417 30.9327 20.7863 30.8971C21.1144 30.8494 21.448 30.934 21.7137 31.1323C21.9794 31.3305 22.1554 31.6262 22.2031 31.9543Z" fill="#45413C" stroke="#45413C" stroke-width="0.5" stroke-linecap="round" stroke-linejoin="round"/>
<path d="M16.2987 39.1282C16.4479 40.1549 17.9538 40.7823 19.6609 40.5342C21.3679 40.2861 22.6329 39.2559 22.4837 38.2292C22.3344 37.2025 20.8285 36.5751 19.1215 36.8232C17.4144 37.0713 16.1494 38.1015 16.2987 39.1282Z" fill="#FFAA54"/>
<path d="M44.4691 28.7177C44.5047 28.9624 44.612 29.191 44.7775 29.3747C44.943 29.5583 45.1592 29.6888 45.3989 29.7496C45.6385 29.8103 45.8908 29.7987 46.1238 29.7161C46.3568 29.6335 46.5601 29.4836 46.708 29.2855C46.8558 29.0873 46.9416 28.8498 46.9545 28.6029C46.9673 28.356 46.9067 28.1108 46.7802 27.8984C46.6537 27.686 46.4671 27.5158 46.2439 27.4095C46.0207 27.3031 45.771 27.2653 45.5263 27.3009C45.1983 27.3486 44.9026 27.5247 44.7043 27.7904C44.506 28.0561 44.4215 28.3896 44.4691 28.7177Z" fill="#45413C" stroke="#45413C" stroke-width="0.5" stroke-linecap="round" stroke-linejoin="round"/>
<path d="M52.1717 33.9137C52.3209 34.9405 51.0559 35.9706 49.3489 36.2188C47.6418 36.4669 46.1359 35.8395 45.9867 34.8128C45.8374 33.7861 47.1024 32.7559 48.8095 32.5078C50.5165 32.2596 52.0224 32.887 52.1717 33.9137Z" fill="#FFAA54"/>
<path d="M41.9369 40.6689C38.5341 40.0266 33.6985 41.8664 30.1856 45.3327" stroke="#45413C" stroke-width="0.5" stroke-linecap="round" stroke-linejoin="round"/>
</g>
<defs>
<clipPath id="clip0_15_88">
<rect width="60" height="60" fill="white" transform="translate(0 8.63062) rotate(-8.2704)"/>
</clipPath>
</defs>
</svg>
