<svg width="71" height="71" viewBox="0 0 71 71" fill="none" xmlns="http://www.w3.org/2000/svg">
<g opacity="0.5" clip-path="url(#clip0_15_100)">
<path d="M18.1284 17.5006C14.5796 21.7357 12.8586 27.2071 13.344 32.7111C13.8293 38.2151 16.4812 43.3008 20.7163 46.8496C24.9514 50.3983 30.4227 52.1193 35.9267 51.6339C41.4307 51.1486 46.5165 48.4967 50.0652 44.2616C53.6139 40.0265 55.3349 34.5552 54.8496 29.0512C54.3643 23.5472 51.7124 18.4614 47.4773 14.9127C43.2422 11.364 37.7708 9.64299 32.2668 10.1283C26.7628 10.6137 21.6771 13.2656 18.1284 17.5006Z" fill="#FFE500"/>
<path d="M47.4773 14.9127C44.319 12.2663 40.4469 10.6159 36.3507 10.1701C32.2544 9.72431 28.118 10.5032 24.4644 12.4083C20.8108 14.3134 17.8042 17.2592 15.8248 20.873C13.8454 24.4869 12.982 28.6066 13.344 32.7111C13.7059 36.8156 15.2768 40.7206 17.8581 43.9323C20.4394 47.144 23.9151 49.5182 27.8457 50.7545C31.7763 51.9909 35.9852 52.0339 39.9402 50.8782C43.8953 49.7225 47.4188 47.4199 50.0652 44.2616C53.6139 40.0265 55.3349 34.5552 54.8496 29.0512C54.3643 23.5472 51.7124 18.4615 47.4773 14.9127ZM22.7234 44.4543C19.8415 42.0394 17.7404 38.8242 16.6858 35.2153C15.6312 31.6063 15.6704 27.7656 16.7986 24.179C17.9268 20.5923 20.0932 17.4207 23.0239 15.0653C25.9545 12.7099 29.5179 11.2764 33.2632 10.9462C37.0086 10.6159 40.7678 11.4037 44.0655 13.2099C47.3631 15.0161 50.0511 17.7597 51.7895 21.0935C53.5279 24.4274 54.2387 28.202 53.8319 31.9398C53.4251 35.6776 51.9191 39.2109 49.5042 42.0928C46.266 45.9573 41.6253 48.3772 36.6029 48.82C31.5805 49.2629 26.5879 47.6925 22.7234 44.4543Z" fill="#EBCB00"/>
<path d="M40.0106 14.0922C39.8788 14.2494 39.8723 14.509 39.9912 14.856C40.1102 15.2031 40.3525 15.6308 40.7041 16.1147C41.0558 16.5987 41.51 17.1294 42.0407 17.6766C42.5715 18.2238 43.1685 18.7768 43.7976 19.3039C44.4267 19.8311 45.0756 20.3221 45.7073 20.7489C46.3389 21.1758 46.9409 21.5301 47.479 21.7916C48.017 22.0531 48.4805 22.2168 48.843 22.2732C49.2055 22.3296 49.4599 22.2777 49.5917 22.1205C49.7235 21.9632 49.73 21.7036 49.6111 21.3566C49.4921 21.0096 49.2498 20.5818 48.8982 20.0979C48.5465 19.6139 48.0923 19.0832 47.5615 18.536C47.0308 17.9888 46.4338 17.4358 45.8047 16.9087C45.1756 16.3815 44.5267 15.8905 43.895 15.4637C43.2634 15.0369 42.6614 14.6826 42.1233 14.421C41.5853 14.1595 41.1218 13.9958 40.7593 13.9394C40.3968 13.883 40.1424 13.9349 40.0106 14.0922Z" fill="#FFF48C"/>
<path opacity="0.15" d="M5.26545 39.3387C4.99929 39.6564 6.08994 41.0888 8.29747 43.3208C10.505 45.5529 13.6486 48.4018 17.0366 51.2408C20.4247 54.0797 23.7797 56.6763 26.3637 58.4591C28.9476 60.242 30.5488 61.0652 30.8149 60.7475C31.0811 60.4299 29.9904 58.9975 27.7829 56.7654C25.5754 54.5334 22.4318 51.6845 19.0437 48.8455C15.6556 46.0065 12.3006 43.41 9.71669 41.6271C7.13276 39.8443 5.5316 39.0211 5.26545 39.3387Z" fill="#45413C"/>
<path d="M18.1284 17.5006C14.5796 21.7357 12.8586 27.2071 13.344 32.7111C13.8293 38.2151 16.4812 43.3008 20.7163 46.8495C24.9514 50.3983 30.4227 52.1193 35.9267 51.6339C41.4307 51.1486 46.5165 48.4967 50.0652 44.2616C53.6139 40.0265 55.3349 34.5552 54.8496 29.0512C54.3643 23.5472 51.7124 18.4614 47.4773 14.9127C43.2422 11.364 37.7708 9.64299 32.2668 10.1283C26.7628 10.6137 21.6771 13.2656 18.1284 17.5006V17.5006Z" stroke="#45413C" stroke-width="0.5" stroke-linecap="round" stroke-linejoin="round"/>
<path d="M42.3288 44.574C41.7735 45.2367 40.431 45.0223 39.3292 44.0991C38.2274 43.1758 37.7814 41.8916 38.3367 41.2289C38.892 40.5662 40.2344 40.7806 41.3363 41.7038C42.4381 42.6271 42.8841 43.9113 42.3288 44.574Z" fill="#FFAA54"/>
<path d="M19.1746 25.1725C18.6193 25.8352 19.0653 27.1194 20.1671 28.0427C21.2689 28.9659 22.6114 29.1803 23.1667 28.5176C23.722 27.8549 23.276 26.5707 22.1742 25.6474C21.0723 24.7242 19.7299 24.5098 19.1746 25.1725Z" fill="#FFAA54"/>
<path d="M22.0826 22.5127C22.3931 22.1421 22.8381 21.9101 23.3197 21.8676C23.8013 21.8252 24.2801 21.9758 24.6507 22.2863C25.0212 22.5968 25.2533 23.0418 25.2957 23.5234C25.3382 24.005 25.1876 24.4837 24.8771 24.8543" stroke="#45413C" stroke-width="0.5" stroke-linecap="round" stroke-linejoin="round"/>
<path d="M41.6439 38.9038C41.9544 38.5333 42.3994 38.3012 42.881 38.2588C43.3626 38.2163 43.8414 38.3669 44.2119 38.6774C44.5825 38.9879 44.8145 39.4329 44.857 39.9145C44.8995 40.3961 44.7489 40.8748 44.4384 41.2454" stroke="#45413C" stroke-width="0.5" stroke-linecap="round" stroke-linejoin="round"/>
<path d="M45.6628 53.035L50.3046 54.8588C50.3912 54.8909 50.4857 54.8954 50.575 54.8717C50.6643 54.848 50.7441 54.7973 50.8035 54.7264C50.8628 54.6556 50.8988 54.5681 50.9065 54.476C50.9142 54.384 50.8932 54.2917 50.8465 54.212L48.6979 50.7265C48.553 50.4882 48.4661 50.2192 48.4441 49.9412C48.4222 49.6631 48.4658 49.3838 48.5716 49.1257L50.077 45.318C50.109 45.2302 50.1134 45.1346 50.0896 45.0442C50.0657 44.9538 50.0148 44.8728 49.9437 44.8122C49.8729 44.7527 49.7851 44.7172 49.6928 44.7107C49.6006 44.7042 49.5087 44.7271 49.4303 44.7761L45.9368 46.9179C45.6981 47.0676 45.4274 47.1586 45.1468 47.1833C44.8662 47.208 44.5837 47.1659 44.3226 47.0603L40.5149 45.5549C40.4282 45.5228 40.3338 45.5182 40.2445 45.5419C40.1551 45.5656 40.0753 45.6164 40.016 45.6872C39.9566 45.758 39.9206 45.8455 39.9129 45.9376C39.9052 46.0297 39.9262 46.1219 39.973 46.2016L42.1148 49.6951C42.2594 49.9303 42.3472 50.196 42.3715 50.471C42.3957 50.7461 42.3557 51.023 42.2546 51.2799L40.7571 55.0943C40.7226 55.1801 40.7161 55.2746 40.7386 55.3643C40.7612 55.4539 40.8115 55.5342 40.8825 55.5935C40.9546 55.6529 41.0433 55.6889 41.1365 55.6965C41.2297 55.7042 41.323 55.6831 41.4038 55.6362L45.6628 53.035Z" fill="white" stroke="#45413C" stroke-width="0.5" stroke-linecap="round" stroke-linejoin="round"/>
<path d="M24.0279 42.8974C31.3734 49.0524 34.9245 46.8094 36.6075 43.9251C36.8308 43.4704 36.9544 42.9733 36.9698 42.467C36.9852 41.9607 36.8921 41.4569 36.6969 40.9895C36.5016 40.5221 36.2086 40.1019 35.8376 39.757C35.4665 39.4122 35.026 39.1507 34.5456 38.9901C32.7911 38.2973 31.1632 37.319 29.728 36.0948C28.2716 34.896 27.0236 33.4645 26.0344 31.8583C25.7922 31.4134 25.4577 31.0254 25.0532 30.7205C24.6488 30.4155 24.1837 30.2006 23.6894 30.0901C23.195 29.9796 22.6828 29.9761 22.187 30.0799C21.6912 30.1837 21.2233 30.3923 20.8147 30.6918C18.2695 32.8535 16.6825 36.7424 24.0279 42.8974Z" fill="white" stroke="#45413C" stroke-width="0.5" stroke-linecap="round" stroke-linejoin="round"/>
<path d="M36.191 44.5681C34.5774 44.1231 33.0346 43.4526 31.6084 42.5764C29.9965 41.6151 28.4679 40.5206 27.0386 39.3044C25.591 38.11 24.2459 36.7965 23.0174 35.3777C21.9052 34.1268 20.975 32.7252 20.2545 31.2144" stroke="#45413C" stroke-width="0.5" stroke-linecap="round" stroke-linejoin="round"/>
<path d="M26.3877 32.426L23.0174 35.3778L19.7781 38.2218" stroke="#45413C" stroke-width="0.5" stroke-linecap="round" stroke-linejoin="round"/>
<path d="M24.028 42.8974L29.7147 36.1108" stroke="#45413C" stroke-width="0.5" stroke-linecap="round" stroke-linejoin="round"/>
<path d="M33.9327 38.7483L31.6084 42.5764L29.3751 46.2635" stroke="#45413C" stroke-width="0.5" stroke-linecap="round" stroke-linejoin="round"/>
</g>
<defs>
<clipPath id="clip0_15_100">
<rect width="50" height="50" fill="white" transform="translate(32.1132) rotate(39.9608)"/>
</clipPath>
</defs>
</svg>
