<svg width="83" height="83" viewBox="0 0 83 83" fill="none" xmlns="http://www.w3.org/2000/svg">
<g opacity="0.5" clip-path="url(#clip0_15_77)">
<path d="M22.1422 24.057C22.2377 24.2698 22.3978 24.4472 22.5997 24.5641C22.8016 24.681 23.0351 24.7315 23.2672 24.7084C23.4994 24.6853 23.7184 24.5898 23.8933 24.4354C24.0682 24.281 24.1902 24.0756 24.2419 23.8481C24.3762 23.3825 24.5995 22.9474 24.8994 22.5667C28.4059 18.1933 41.3967 22.7517 53.9247 32.775C54.0481 32.8704 54.2027 32.9162 54.3581 32.9034C54.5135 32.8907 54.6585 32.8203 54.7647 32.706C54.8688 32.591 54.9254 32.4406 54.9229 32.2854C54.9205 32.1303 54.8592 31.9818 54.7515 31.8701C52.6712 29.7367 50.4615 27.7335 48.1347 25.8721C36.6215 16.7843 24.7197 12.5949 21.5198 16.598C20.2403 18.1936 20.5488 20.8609 22.1422 24.057Z" fill="#FFCCDD" stroke="#FFB0CA" stroke-width="0.5" stroke-linecap="round" stroke-linejoin="round"/>
<path opacity="0.7" d="M17.3466 52.6279C17.2311 52.8228 17.3465 53.1519 17.6862 53.5964C18.026 54.041 18.5834 54.5922 19.3266 55.2188C20.0698 55.8453 20.9843 56.5348 22.0178 57.2479C23.0513 57.961 24.1837 58.6838 25.3502 59.3749C26.5168 60.066 27.6946 60.712 28.8165 61.276C29.9384 61.8399 30.9825 62.3108 31.889 62.6617C32.7955 63.0126 33.5467 63.2366 34.0998 63.3211C34.6529 63.4055 34.997 63.3487 35.1125 63.1538C35.2279 62.9589 35.1125 62.6298 34.7728 62.1852C34.4331 61.7407 33.8757 61.1894 33.1325 60.5629C32.3893 59.9364 31.4748 59.2469 30.4412 58.5338C29.4077 57.8206 28.2753 57.0979 27.1088 56.4067C25.9423 55.7156 24.7644 55.0696 23.6425 54.5057C22.5206 53.9417 21.4766 53.4709 20.5701 53.12C19.6635 52.7691 18.9123 52.545 18.3592 52.4606C17.8061 52.3761 17.462 52.433 17.3466 52.6279V52.6279Z" fill="#FFE5EE"/>
<path d="M59.6928 34.5653C60.3789 33.4073 61.4969 32.5692 62.8009 32.2356C64.1048 31.9019 65.4879 32.0998 66.6459 32.7859C69.7109 34.6018 69.2026 38.427 67.7753 40.8359C64.0097 47.1916 55.5554 47.7038 52.8156 47.6933C52.5444 47.6969 52.2774 47.6256 52.044 47.4874C51.8107 47.3491 51.62 47.1492 51.4929 46.9095C50.1676 44.5116 46.5342 36.8378 50.2998 30.4821C51.727 28.0731 54.8486 25.7963 57.9028 27.6058C58.4779 27.9446 58.9805 28.3936 59.3818 28.927C59.7832 29.4604 60.0754 30.0677 60.2417 30.7141C60.4079 31.3606 60.4451 32.0335 60.3509 32.6944C60.2567 33.3552 60.0331 33.991 59.6928 34.5653Z" fill="#FF6196"/>
<path d="M56.405 29.6679C57.2929 30.1951 58.0089 30.9685 58.4661 31.8944C58.9232 32.8203 59.102 33.8589 58.9807 34.8844C58.9698 34.9802 58.9869 35.0771 59.0298 35.1635C59.0727 35.2499 59.1397 35.322 59.2227 35.3711C59.3056 35.4203 59.4011 35.4444 59.4974 35.4406C59.5938 35.4367 59.687 35.4051 59.7658 35.3495C60.6063 34.7491 61.6034 34.406 62.6354 34.3622C63.6674 34.3185 64.6899 34.5758 65.5783 35.1029C66.5139 35.6814 67.2367 36.5474 67.6385 37.5714C68.0404 38.5953 68.0996 39.7218 67.8072 40.7822C69.2281 38.384 69.6702 34.6214 66.6268 32.8182C65.4688 32.1322 64.0857 31.9342 62.7818 32.2679C61.4778 32.6016 60.3598 33.4396 59.6737 34.5976C60.3598 33.4396 60.5578 32.0565 60.2241 30.7525C59.8904 29.4486 59.0524 28.3306 57.8944 27.6445C54.8617 25.8477 51.8087 28.107 50.3424 30.4347C51.1356 29.6711 52.1542 29.184 53.2465 29.0458C54.3389 28.9077 55.4466 29.1258 56.405 29.6679V29.6679Z" fill="#FF87AF"/>
<path d="M59.6928 34.5653C60.3789 33.4073 61.4969 32.5692 62.8009 32.2356C64.1048 31.9019 65.4879 32.0998 66.6459 32.7859C69.7109 34.6018 69.2026 38.427 67.7753 40.8359C64.0097 47.1916 55.5554 47.7038 52.8156 47.6933C52.5444 47.6969 52.2774 47.6256 52.044 47.4874C51.8107 47.3491 51.62 47.1492 51.4929 46.9095C50.1676 44.5116 46.5342 36.8378 50.2998 30.4821C51.727 28.0731 54.8486 25.7963 57.9028 27.6058C58.4779 27.9446 58.9805 28.3936 59.3818 28.927C59.7832 29.4604 60.0754 30.0677 60.2417 30.7141C60.4079 31.3606 60.4451 32.0335 60.3509 32.6944C60.2567 33.3552 60.0331 33.991 59.6928 34.5653Z" stroke="#45413C" stroke-width="0.5" stroke-linecap="round" stroke-linejoin="round"/>
<path d="M39.2757 35.3561C40.1984 33.7988 41.7019 32.6718 43.4555 32.223C45.2091 31.7743 47.0691 32.0405 48.6264 32.9632C52.7345 35.3971 52.0706 40.5394 50.1527 43.7764C45.0937 52.3152 33.712 53.0108 30.0311 52.9948C29.6685 52.9933 29.3129 52.8951 29.001 52.7103C28.6891 52.5255 28.4321 52.2608 28.2566 51.9435C26.4314 48.6973 21.6173 38.406 26.6763 29.8672C28.5878 26.6409 32.7747 23.5714 36.8828 26.0054C37.6551 26.461 38.3299 27.0647 38.8684 27.7818C39.4069 28.4988 39.7986 29.3151 40.0209 30.1838C40.2432 31.0526 40.2918 31.9567 40.1639 32.8442C40.0361 33.7318 39.7342 34.5854 39.2757 35.3561Z" fill="#FF6196"/>
<path d="M34.853 28.7692C36.046 29.4746 37.0087 30.5109 37.6244 31.7526C38.2402 32.9942 38.4824 34.3878 38.3219 35.7644C38.3022 35.897 38.3224 36.0326 38.3801 36.1537C38.4377 36.2748 38.5301 36.376 38.6455 36.4443C38.7609 36.5127 38.894 36.5451 39.0279 36.5375C39.1618 36.5299 39.2904 36.4825 39.3973 36.4015C40.5288 35.6024 41.8671 35.1473 43.2512 35.0909C44.6352 35.0346 46.0061 35.3794 47.1988 36.0838C50.1347 37.8233 50.7519 40.8769 50.2316 43.6924C52.1431 40.4661 52.7536 35.3648 48.667 32.9436C47.1097 32.021 45.2497 31.7547 43.4961 32.2035C41.7425 32.6522 40.239 33.7792 39.3164 35.3365C39.7749 34.5659 40.0767 33.7123 40.2046 32.8247C40.3325 31.9371 40.2839 31.0331 40.0615 30.1643C39.8392 29.2956 39.4476 28.4793 38.9091 27.7622C38.3706 27.0452 37.6958 26.4415 36.9235 25.9858C32.8476 23.571 28.6946 26.5589 26.7552 29.7831C28.9424 27.9552 31.9171 27.0298 34.853 28.7692Z" fill="#FF87AF"/>
<path d="M39.2757 35.3561C40.1984 33.7988 41.7019 32.6718 43.4555 32.223C45.2091 31.7743 47.0691 32.0405 48.6264 32.9632C52.7345 35.3971 52.0706 40.5394 50.1527 43.7764C45.0937 52.3152 33.712 53.0108 30.0311 52.9948C29.6685 52.9933 29.3129 52.8951 29.001 52.7103C28.6891 52.5255 28.4321 52.2608 28.2566 51.9435C26.4314 48.6973 21.6173 38.406 26.6763 29.8672C28.5878 26.6409 32.7747 23.5714 36.8828 26.0054C37.6551 26.461 38.3299 27.0647 38.8684 27.7818C39.4069 28.4988 39.7986 29.3151 40.0209 30.1838C40.2432 31.0526 40.2918 31.9567 40.1639 32.8442C40.0361 33.7318 39.7342 34.5854 39.2757 35.3561Z" stroke="#45413C" stroke-width="0.5" stroke-linecap="round" stroke-linejoin="round"/>
<path d="M63.4259 52.4686C63.3303 52.2557 63.1703 52.0783 62.9684 51.9614C62.7665 51.8445 62.533 51.794 62.3008 51.8171C62.0687 51.8402 61.8496 51.9357 61.6747 52.0901C61.4998 52.2445 61.3779 52.4499 61.3261 52.6774C61.1912 53.1473 60.9657 53.5862 60.6623 53.9695C57.1558 58.343 44.1714 53.7738 31.637 43.7612C31.5301 43.6558 31.3876 43.5942 31.2375 43.5887C31.0874 43.5831 30.9408 43.6341 30.8264 43.7314C30.7223 43.8465 30.6658 43.9969 30.6682 44.152C30.6707 44.3072 30.7319 44.4557 30.8397 44.5674C32.9223 46.6973 35.1342 48.6969 37.4628 50.5547C48.9099 59.705 60.7623 63.8796 63.9192 59.8511C65.315 58.3534 65.0065 55.6862 63.4259 52.4686Z" fill="#FFCCDD" stroke="#FFB0CA" stroke-width="0.5" stroke-linecap="round" stroke-linejoin="round"/>
</g>
<defs>
<clipPath id="clip0_15_77">
<rect width="60" height="60" fill="white" transform="translate(30.5837) rotate(30.6457)"/>
</clipPath>
</defs>
</svg>
