<svg width="47" height="44" viewBox="0 0 47 44" fill="none" xmlns="http://www.w3.org/2000/svg">
<path fill-rule="evenodd" clip-rule="evenodd" d="M43.8602 14.7218C42.7107 10.5204 42.1308 6.12174 41.5996 1.85473C41.4882 0.935683 42.1097 0.0824089 42.9852 0.0167626C43.8615 -0.11453 44.6628 0.542318 44.7741 1.39572C45.2855 5.53144 45.8328 9.79806 46.9394 13.8025C47.1794 14.6559 46.6853 15.5753 45.8353 15.8379C44.986 16.1005 44.1008 15.5752 43.8602 14.7218Z" fill="white"/>
<path fill-rule="evenodd" clip-rule="evenodd" d="M27.563 27.4567C20.8356 20.6951 14.9741 13.0801 8.06623 6.44986C7.42107 5.85904 7.38651 4.8087 7.98878 4.15224C8.5917 3.49578 9.60551 3.43039 10.2507 4.08685C17.1784 10.7171 23.0591 18.3321 29.8063 25.0937C30.4361 25.7501 30.4451 26.8002 29.8255 27.4567C29.2066 28.0475 28.1928 28.1131 27.563 27.4567Z" fill="white"/>
<path fill-rule="evenodd" clip-rule="evenodd" d="M1.68698 40.1272C5.53743 40.3241 9.38788 40.5207 13.239 40.7176C14.1209 40.7176 14.8019 41.5058 14.7591 42.4248C14.7155 43.3439 13.9648 43.9999 13.0822 43.9999C9.22532 43.803 5.3691 43.6065 1.51289 43.4095C0.630919 43.3439 -0.0455983 42.556 0.00240444 41.6369C0.0504071 40.7835 0.805651 40.0616 1.68698 40.1272Z" fill="white"/>
</svg>
